<svg viewBox="0 0 500 500" version="1.1" id="svg_null"><g id="root" stroke="none" stroke-width="1" fill="none" fill-rule="evenodd"><rect id="background" fill="#FFF" x="0" y="0" width="500" height="500"></rect><g id="shape" transform="translate(120.000000, 70.000000)"><rect id="shape.accent" fill="#3a4750" opacity=".5" transform="translate(173.610285, 103.939534) rotate(45.000000) translate(-173.610285, -103.939534)" x="71.61" y="83.964" width="204" height="39.951"></rect><rect id="shape.secondary" fill="#f6c90e" opacity=".5" transform="translate(133.183959, 144.365861) rotate(45.000000) translate(-133.183959, -144.365861)" x="31.184" y="124.39" width="204" height="39.951"></rect><rect id="shape.primary" fill="#f64e8b" opacity=".5" transform="translate(92.270568, 185.279251) rotate(45.000000) translate(-92.270568, -185.279251)" x="-9.729" y="165.304" width="204" height="39.951"></rect><rect id="shape.accent" fill="#3a4750" transform="translate(168.082375, 86.840028) rotate(45.000000) translate(-168.082375, -86.840028)" x="66.082" y="66.926" width="204" height="39.828"></rect><rect id="shape.secondary" fill="#f6c90e" transform="translate(127.850437, 127.071965) rotate(45.000000) translate(-127.850437, -127.071965)" x="25.85" y="107.158" width="204" height="39.828"></rect><rect id="shape.primary" fill="#f64e8b" transform="translate(86.947967, 167.974435) rotate(45.000000) translate(-86.947967, -167.974435)" x="-15.052" y="148.061" width="204" height="39.828"></rect></g><g id="Group" transform="translate(40.000000, 364.000000)"><rect id="Rectangle-10" x="0" y="0" width="420" height="58"></rect><text id="headerText" font-family="Source Code Pro" font-size="50" font-weight="900" fill="#000" data-text-alignment="C" font-style="normal"><tspan x="120.015625" y="41">C# QSS</tspan></text></g></g></svg>